<svg width="14" height="14" viewBox="0 0 14 14" fill="none" xmlns="http://www.w3.org/2000/svg">
<path d="M7.3242 9.32166H6.65838V6.65838H5.99257M6.65838 3.99511H6.66504M12.6508 6.65838C12.6508 7.44531 12.4958 8.22454 12.1946 8.95156C11.8935 9.67859 11.4521 10.3392 10.8956 10.8956C10.3392 11.4521 9.67859 11.8935 8.95156 12.1946C8.22454 12.4958 7.44531 12.6508 6.65838 12.6508C5.87146 12.6508 5.09223 12.4958 4.3652 12.1946C3.63818 11.8935 2.97758 11.4521 2.42114 10.8956C1.8647 10.3392 1.4233 9.67859 1.12216 8.95156C0.821013 8.22454 0.666016 7.44531 0.666016 6.65838C0.666016 5.06911 1.29735 3.54493 2.42114 2.42114C3.54493 1.29735 5.06911 0.666016 6.65838 0.666016C8.24766 0.666016 9.77184 1.29735 10.8956 2.42114C12.0194 3.54493 12.6508 5.06911 12.6508 6.65838Z" stroke="#33AACC" stroke-width="1.33164" stroke-linecap="round" stroke-linejoin="round"/>
</svg>
